<?xml version="1.0" standalone="no"?>
<!DOCTYPE svg PUBLIC "-//W3C//DTD SVG 20010904//EN"
 "http://www.w3.org/TR/2001/REC-SVG-20010904/DTD/svg10.dtd">
<svg version="1.0" xmlns="http://www.w3.org/2000/svg"
 width="700.000000pt" height="700.000000pt" viewBox="0 0 700.000000 700.000000"
 preserveAspectRatio="xMidYMid meet">
<metadata>
Created by potrace 1.14, written by Peter Selinger 2001-2017
</metadata>
<g transform="translate(0.000000,700.000000) scale(0.100000,-0.100000)"
fill="#000000" stroke="none">
<path d="M5929 6716 l-32 -104 -146 38 c-80 21 -153 41 -163 45 -11 4 -18 0
-21 -12 -6 -20 -47 -210 -47 -217 0 -2 70 -21 155 -41 87 -21 155 -42 155 -49
-1 -6 -16 -67 -34 -136 -29 -110 -36 -126 -57 -132 -13 -4 -55 -15 -94 -24
-169 -42 -324 -156 -389 -285 -92 -185 -60 -326 92 -401 66 -33 68 -33 212
-33 157 0 243 17 356 71 79 37 257 167 347 253 l79 76 37 -42 c79 -88 79 -210
0 -306 -68 -83 -239 -129 -408 -110 -72 8 -81 7 -75 -6 3 -9 22 -58 41 -108
26 -67 41 -94 57 -99 11 -4 82 -7 156 -7 166 0 269 24 360 85 154 103 239 344
185 526 -21 70 -89 168 -155 221 -30 25 -53 49 -51 55 13 39 11 42 -101 94
-62 29 -114 49 -116 44 -1 -5 -8 -16 -15 -25 -11 -14 -20 -14 -97 3 -47 11
-97 20 -112 20 -16 0 -28 3 -28 8 0 10 58 203 62 207 1 2 67 -10 146 -26 78
-16 202 -38 275 -49 72 -11 146 -22 163 -25 l31 -5 17 107 c10 60 19 115 22
124 4 14 -8 18 -73 24 -161 14 -487 66 -501 80 -2 2 9 44 26 93 l30 89 -119
42 c-65 22 -122 41 -128 41 -5 0 -24 -47 -42 -104z m180 -842 c7 -6 -57 -70
-117 -116 -29 -22 -55 -39 -57 -36 -5 4 19 135 29 164 3 8 25 8 72 2 38 -5 71
-11 73 -14z m-404 -51 c-4 -27 -13 -88 -19 -138 l-12 -89 -39 -9 c-68 -14
-159 14 -167 50 -7 34 14 92 49 132 34 40 140 100 177 101 16 0 17 -5 11 -47z"/>
<path d="M3869 6754 c-37 -31 -47 -34 -80 -29 -35 6 -42 3 -76 -29 -43 -41
-49 -42 -74 -20 -10 9 -36 18 -59 21 -34 5 -45 2 -66 -18 -24 -23 -25 -23 -72
-6 -59 21 -64 21 -88 -1 -36 -34 -69 -52 -91 -52 -13 0 -32 -9 -43 -20 -11
-11 -32 -20 -46 -20 -31 0 -59 -14 -102 -51 -18 -16 -41 -29 -50 -29 -10 0
-26 -6 -37 -14 -11 -7 -31 -14 -46 -14 -14 0 -39 -13 -60 -32 -42 -39 -71 -51
-107 -44 -20 4 -34 -1 -54 -19 -16 -15 -45 -27 -72 -31 -25 -4 -48 -11 -51
-16 -8 -13 -94 -50 -116 -50 -9 0 -24 7 -32 15 -9 8 -48 30 -89 48 -63 28 -79
32 -117 25 -37 -6 -50 -4 -86 17 -72 43 -163 30 -246 -36 -20 -16 -41 -29 -47
-29 -16 0 -23 -30 -11 -52 6 -11 9 -36 6 -54 -4 -23 -1 -34 9 -38 9 -3 12 -1
9 4 -9 14 11 12 43 -4 17 -8 56 -13 105 -12 42 1 77 -1 77 -6 0 -4 -4 -8 -10
-8 -5 0 -10 -4 -10 -10 0 -20 29 -9 33 13 3 16 5 13 6 -10 0 -18 -3 -33 -9
-33 -5 0 -10 -7 -10 -15 0 -29 -52 -95 -74 -95 -12 0 -32 -7 -44 -16 -22 -15
-25 -15 -46 5 -12 12 -30 21 -39 21 -9 0 -17 4 -17 10 0 5 -7 7 -15 4 -8 -4
-12 -10 -9 -15 10 -16 21 -108 12 -103 -4 3 -8 0 -8 -5 0 -23 -17 -9 -33 27
-9 20 -56 80 -104 132 -47 52 -113 124 -144 159 l-58 63 -381 -152 -380 -152
0 -147 c0 -104 67 -3764 70 -3789 0 -2 6 0 12 3 7 4 5 0 -4 -8 -10 -8 -18 -27
-18 -42 0 -22 -4 -26 -19 -22 -20 5 -51 -23 -51 -47 0 -17 -17 -30 -57 -44
-32 -11 -73 -45 -73 -61 0 -5 -25 -31 -55 -59 -30 -28 -55 -58 -55 -66 0 -9
-9 -31 -19 -50 -11 -19 -17 -37 -14 -40 3 -3 -5 -23 -19 -43 -13 -21 -37 -78
-52 -127 -32 -104 -37 -230 -11 -283 12 -25 13 -40 6 -75 -18 -77 -14 -125 17
-170 48 -72 52 -82 53 -138 0 -39 3 -49 9 -35 13 32 -1 105 -32 168 -28 57
-29 58 -13 109 8 28 15 62 15 75 0 31 38 107 61 121 10 6 62 21 116 32 54 11
128 27 165 36 68 17 151 13 163 -7 4 -5 20 -9 36 -9 26 0 29 -3 27 -27 -3 -26
0 -28 30 -25 28 2 32 -1 32 -23 0 -25 23 -35 35 -15 9 15 25 12 25 -4 0 -7 7
-20 16 -27 14 -11 18 -10 31 6 14 20 14 20 33 -5 18 -24 19 -24 39 -6 19 17
21 17 37 1 16 -16 18 -16 34 5 15 20 19 21 39 9 19 -12 24 -12 35 4 17 22 17
22 79 -7 29 -14 66 -42 83 -63 28 -34 31 -47 37 -126 4 -54 12 -96 22 -109 9
-13 15 -44 15 -74 0 -40 5 -55 22 -70 21 -19 21 -19 14 0 -9 26 -29 296 -27
366 1 44 6 59 24 73 21 17 21 18 2 15 -16 -2 -21 3 -23 27 -2 24 5 38 35 66
37 36 40 36 101 32 34 -3 62 -9 62 -14 0 -13 -119 -99 -139 -100 -9 0 -11 -3
-4 -5 13 -6 86 34 119 64 29 28 64 45 64 32 0 -6 27 -10 66 -10 l65 0 20 -48
c19 -43 89 -192 95 -200 1 -2 14 4 28 15 23 16 25 25 26 91 0 39 3 72 8 72 10
0 68 -23 127 -49 27 -12 70 -27 95 -34 65 -16 71 -23 65 -76 -4 -44 -3 -48 38
-83 l43 -37 63 19 c113 36 131 27 131 -66 0 -68 2 -71 74 -103 l48 -21 34 34
c22 22 48 37 73 41 32 5 40 3 53 -17 9 -13 32 -41 52 -62 34 -38 38 -39 72
-30 36 9 39 13 96 144 57 131 59 137 53 202 -3 37 -2 69 2 71 5 3 29 3 56 0
l47 -6 0 -42 c0 -23 -11 -67 -24 -97 -13 -29 -33 -84 -45 -122 -11 -37 -29
-80 -39 -94 -23 -34 -42 -79 -42 -98 0 -9 -7 -22 -15 -30 -36 -36 -19 -55 150
-163 231 -148 371 -223 433 -231 31 -4 70 -12 85 -19 77 -31 118 -6 226 133
60 78 95 114 134 137 52 30 52 30 167 25 63 -3 130 -9 148 -12 25 -5 32 -3 32
9 0 9 5 19 11 22 13 8 59 -33 59 -53 0 -7 14 -27 30 -44 21 -21 29 -36 25 -49
-10 -29 12 -83 37 -94 25 -11 35 -52 20 -82 -15 -30 1 -67 38 -86 28 -14 48
-16 97 -11 60 6 64 5 98 -25 47 -41 79 -40 247 5 73 19 156 41 183 48 73 20
117 40 140 66 23 25 25 84 10 272 -12 164 8 205 163 324 48 37 93 71 99 76 9
7 15 5 19 -8 3 -11 9 -28 14 -39 29 -71 40 -110 41 -143 l1 -37 9 35 c4 21 4
50 -2 72 -14 55 -14 140 0 166 27 51 108 55 222 11 44 -17 121 -39 172 -50
145 -30 148 -28 276 190 137 232 152 279 106 341 -21 29 -24 42 -19 76 3 22 1
59 -5 82 -10 34 -20 47 -59 69 -112 66 -295 225 -228 200 8 -3 18 -2 21 2 2 5
14 70 24 144 11 74 27 152 36 173 31 75 94 124 222 175 200 79 213 111 145
349 -6 19 -22 81 -37 138 -14 57 -43 142 -64 190 -21 48 -46 112 -56 142 -25
80 -40 100 -76 100 -16 0 -32 -6 -35 -14 -5 -12 -112 -33 -139 -27 -12 3 -169
-27 -213 -40 -22 -7 -37 -7 -45 -1 -7 6 -23 12 -37 14 -23 3 -25 7 -25 53 0
46 -7 59 -73 154 -39 57 -72 114 -72 125 1 12 17 62 36 111 71 182 74 206 31
262 -18 23 -22 41 -22 104 0 92 -11 109 -88 134 -29 9 -59 22 -67 29 -13 11
-169 104 -305 182 -70 40 -86 43 -145 28 -54 -14 -67 -26 -130 -119 -71 -106
-153 -205 -186 -226 -27 -16 -43 -19 -74 -14 -22 4 -42 11 -46 16 -3 5 -20 9
-38 9 -18 0 -36 3 -39 6 -4 4 -36 8 -73 10 -37 2 -73 9 -80 15 -8 7 -29 8 -53
4 -23 -4 -54 -4 -70 0 -28 6 -29 9 -33 65 -2 48 1 65 20 95 22 35 24 36 72 30
l50 -6 24 56 c14 30 29 55 34 55 5 0 27 17 48 38 22 21 47 41 57 45 22 8 24
65 2 73 -8 4 -12 10 -9 15 3 5 -2 9 -10 9 -22 0 -41 33 -41 71 0 24 5 34 15
34 11 0 16 15 18 63 2 52 8 69 35 106 25 35 37 43 55 39 12 -3 22 -1 22 5 0 6
3 17 6 25 4 11 -2 16 -18 19 -12 2 -24 10 -26 19 -2 12 4 15 30 11 18 -3 37
-11 41 -18 22 -38 92 -1 121 64 18 39 18 40 -4 70 -20 28 -22 34 -10 61 7 17
10 43 7 58 -25 125 -42 163 -67 156 -13 -4 -27 7 -47 35 -28 39 -65 69 -133
105 -19 11 -44 28 -56 38 -11 10 -28 19 -36 19 -9 0 -20 9 -23 20 -4 11 -18
26 -32 34 -17 8 -22 16 -14 20 16 10 14 43 -4 50 -14 5 -14 8 -1 28 8 13 14
36 14 52 0 16 7 35 16 41 12 9 16 28 16 73 0 67 -12 82 -64 82 -14 0 -28 4
-31 10 -3 5 0 7 8 4 21 -8 25 14 16 81 -12 90 -34 131 -85 154 -71 34 -75 63
-23 164 5 10 12 53 16 96 5 70 3 84 -20 133 -21 47 -31 58 -63 68 -21 7 -47
23 -56 36 -10 12 -38 30 -63 40 l-45 17 -40 -37 c-22 -20 -42 -36 -45 -36 -2
0 -20 9 -40 20 -20 11 -44 20 -55 20 -11 0 -27 11 -36 24 -19 30 -93 60 -129
54 -14 -3 -42 1 -63 8 -55 20 -66 17 -113 -22z m834 -838 c16 -12 16 -17 5
-35 -19 -32 -35 -25 -34 14 1 39 3 40 29 21z m-2803 -345 c0 -43 -5 -55 -35
-88 -29 -31 -35 -34 -35 -18 0 11 9 31 20 45 11 14 20 39 20 56 0 25 15 54 27
54 2 0 3 -22 3 -49z m-128 -189 c-12 -16 -28 -35 -37 -42 -31 -25 -16 21 16
51 38 36 49 31 21 -9z m-224 -179 c104 -121 104 -120 103 -215 0 -79 1 -84 31
-115 29 -30 30 -35 18 -57 -15 -28 -8 -56 15 -56 8 0 15 -6 15 -14 0 -8 7 -16
15 -20 8 -3 15 -15 15 -27 0 -23 26 -59 43 -59 5 0 15 -7 21 -15 6 -8 33 -19
59 -24 37 -6 56 -17 77 -42 16 -19 29 -40 30 -48 0 -10 3 -11 14 -2 11 9 15 7
19 -10 4 -16 11 -20 27 -16 24 6 80 -10 80 -24 0 -12 -88 -49 -116 -49 -13 0
-24 -6 -24 -12 0 -7 -14 -21 -31 -31 -45 -25 -30 -31 22 -8 24 10 64 22 89 26
25 4 60 16 79 26 18 11 35 18 37 16 2 -1 6 -29 10 -60 6 -47 4 -61 -10 -76
-10 -11 -16 -29 -13 -43 4 -22 4 -21 6 3 1 26 31 64 31 40 0 -6 5 -11 10 -11
6 0 8 10 5 23 -3 12 -2 40 2 61 l9 39 79 -92 c44 -51 80 -97 80 -103 0 -8
-165 -82 -170 -75 -1 1 -8 12 -14 25 -17 32 -28 27 -38 -15 l-9 -37 -319 -128
c-175 -70 -321 -126 -323 -123 -4 4 -60 1288 -62 1403 0 19 4 32 9 30 5 -1 41
-40 79 -85z m3396 -225 c-7 -11 -71 -10 -79 1 -3 6 7 16 22 23 24 11 31 11 45
-1 9 -8 15 -18 12 -23z m-1141 -125 c9 -5 18 -42 26 -98 10 -75 9 -103 -3
-167 -16 -82 -26 -107 -50 -128 -21 -17 -20 -29 2 -24 88 19 159 38 169 46 8
6 10 36 6 96 -5 80 -3 89 18 116 30 38 76 56 119 47 34 -7 35 -8 38 -62 2 -46
8 -62 33 -89 l30 -33 84 18 c88 18 139 14 154 -13 7 -13 -2 -21 -53 -43 -33
-15 -94 -35 -135 -44 -41 -10 -100 -26 -130 -37 -31 -10 -85 -25 -121 -33
-113 -23 -178 -42 -204 -58 -32 -22 -51 -79 -37 -115 10 -26 33 -172 45 -282
10 -89 0 -108 -86 -165 -81 -54 -158 -115 -224 -177 -76 -72 -142 -78 -209
-19 -33 30 -76 51 -104 51 -10 0 -24 7 -31 15 -7 8 -23 15 -35 15 -12 0 -39 7
-58 15 -46 19 -87 19 -114 0 -27 -19 -109 -144 -188 -285 -32 -58 -75 -135
-96 -172 -22 -36 -39 -75 -39 -86 0 -11 -10 -26 -21 -34 -16 -10 -20 -20 -15
-35 6 -19 32 -42 214 -187 34 -28 62 -57 62 -66 0 -28 -59 -204 -77 -231 -10
-15 -27 -39 -37 -55 -23 -34 -157 -174 -167 -174 -4 0 -20 11 -36 24 -45 37
-70 41 -77 12 -3 -14 -2 -36 4 -50 5 -14 6 -26 2 -26 -5 0 -14 16 -22 35 -7
19 -18 31 -23 28 -5 -3 -6 3 -3 15 7 21 -36 159 -60 195 -10 16 -13 12 -19
-32 -5 -36 -13 -54 -29 -65 -13 -8 -31 -29 -40 -48 -10 -18 -25 -46 -33 -63
-32 -63 -44 -77 -57 -66 -16 14 -30 3 -55 -46 -11 -23 -30 -47 -41 -53 -11 -6
-28 -27 -38 -47 -25 -52 -45 -62 -74 -35 -12 12 -33 29 -46 39 -16 12 -25 34
-31 71 -9 56 -18 73 -29 56 -4 -6 -15 -21 -24 -34 l-18 -24 -30 34 c-32 38
-46 86 -36 125 5 21 3 25 -11 23 -12 -2 -19 7 -25 37 -5 22 -6 51 -3 65 4 20
3 22 -5 8 -6 -9 -13 -60 -17 -113 -3 -53 -10 -98 -15 -102 -6 -3 -17 2 -26 10
-17 18 -22 13 -56 -61 -19 -40 -33 -35 -42 15 -5 28 -3 39 10 49 17 12 17 35
0 443 -10 237 -16 432 -13 434 7 6 1263 507 1271 507 4 0 18 11 32 25 49 49
103 44 237 -19 119 -56 242 -106 262 -106 10 0 64 41 120 92 56 50 130 109
165 131 l63 40 -33 36 c-19 20 -60 64 -91 98 l-58 62 20 39 c25 49 44 64 95
78 l41 10 0 65 c1 84 1 82 31 118 l26 31 -27 0 c-21 0 -26 4 -24 23 3 26 -51
138 -63 131 -5 -3 -7 -38 -6 -78 4 -100 -8 -120 -88 -146 -35 -11 -67 -20 -72
-20 -5 0 -22 19 -37 43 -54 81 -99 126 -164 165 -71 41 -108 57 -156 67 -44 8
-89 38 -120 79 -31 41 -25 60 23 69 15 3 31 16 37 29 8 18 19 24 51 26 26 2
47 -2 56 -11 7 -8 29 -17 48 -21 46 -8 49 -9 90 -3 19 3 41 0 47 -5 9 -7 20
-6 37 5 28 19 92 16 126 -5 14 -9 40 -18 59 -22 28 -5 38 -2 58 20 19 21 30
25 53 21 24 -5 29 -2 34 18 5 21 12 25 39 23 29 -3 32 0 29 22 -1 13 0 31 4
40 5 12 8 11 14 -7 5 -12 15 -25 23 -30z m1222 -1498 c159 -44 330 -152 461
-289 49 -51 94 -99 99 -107 68 -90 96 -133 118 -182 14 -32 35 -69 46 -83 11
-13 22 -44 26 -67 4 -23 13 -61 20 -83 9 -27 15 -98 16 -200 2 -183 -4 -262
-20 -292 -6 -11 -11 -32 -11 -47 0 -14 -9 -43 -19 -63 -11 -20 -36 -71 -55
-113 -75 -161 -164 -271 -338 -419 -42 -36 -110 -84 -150 -107 -76 -43 -223
-101 -313 -123 -121 -29 -439 -30 -492 -2 -12 7 -36 12 -53 12 -35 0 -215 91
-243 124 -11 11 -33 28 -50 36 -17 8 -32 21 -35 28 -2 7 11 4 33 -9 35 -21
161 -69 235 -90 143 -41 198 -49 340 -51 119 -1 141 1 182 20 26 12 60 22 77
22 85 0 310 104 419 193 98 81 205 210 258 314 28 54 54 110 58 125 6 26 4 28
-34 34 -28 5 -41 12 -46 28 -9 27 -22 36 -59 36 -17 0 -41 7 -53 16 -12 8 -35
14 -50 13 -15 -2 -34 1 -42 6 -17 11 -21 12 -53 14 -15 1 -28 11 -35 27 -7 14
-16 23 -21 20 -19 -12 -33 23 -26 66 10 61 22 80 46 73 33 -11 49 12 49 72 0
49 -4 57 -37 92 -40 41 -111 67 -99 36 4 -11 -2 -15 -27 -14 -18 0 -52 -1 -77
-3 -40 -4 -46 -7 -54 -36 -12 -42 -4 -57 44 -87 36 -23 40 -29 40 -65 0 -27
-5 -43 -15 -46 -8 -4 -15 -12 -15 -20 0 -24 -19 -15 -26 11 -7 28 -22 33 -30
10 -9 -22 -21 -18 -29 8 -6 19 -8 19 -12 5 -2 -10 -9 -18 -14 -18 -12 0 -12
27 1 35 13 8 13 45 1 45 -5 0 -21 -14 -34 -31 -32 -42 -60 -33 -90 29 -29 61
-52 74 -77 45 -10 -13 -20 -23 -23 -23 -13 0 -67 191 -67 235 0 15 -18 2 -23
-17 -28 -118 -49 -174 -73 -199 -17 -18 -30 -25 -34 -18 -4 6 -24 -4 -50 -26
-30 -25 -46 -33 -54 -25 -5 5 -23 10 -39 10 -20 0 -30 6 -34 20 -10 37 -26 21
-19 -19 6 -38 5 -40 -24 -46 -16 -4 -32 -11 -35 -16 -11 -17 -44 -9 -63 16
-11 14 -24 25 -28 25 -17 1 -41 46 -48 87 -6 31 -1 59 18 114 13 41 33 101 42
133 10 33 25 67 34 76 36 36 33 123 -5 128 -89 12 -141 25 -210 54 -102 43
-145 66 -145 79 0 5 14 37 31 69 88 170 404 355 679 400 41 6 82 13 90 15 41
10 290 -5 345 -20z m-1145 -555 c16 -1 120 -34 212 -70 85 -32 86 -48 19 -265
-17 -55 -38 -104 -47 -110 -9 -5 -30 -21 -45 -33 -28 -23 -31 -23 -72 -9 -37
12 -49 13 -83 1 -48 -17 -76 -18 -92 -2 -15 15 -16 82 -1 109 7 14 6 61 -2
162 -16 183 -16 197 4 228 l18 27 36 -19 c21 -11 44 -19 53 -19z m-910 -21 c0
-11 -9 -55 -19 -97 -11 -43 -24 -140 -30 -216 -12 -155 -21 -178 -79 -203 -20
-9 -64 -28 -97 -43 -33 -15 -73 -31 -89 -34 -68 -16 -156 -65 -176 -98 -24
-39 -26 -90 -5 -108 9 -7 13 -20 10 -29 -2 -9 2 -29 10 -45 8 -15 15 -39 15
-52 0 -13 7 -42 17 -65 13 -32 14 -46 5 -60 -10 -15 -7 -27 16 -66 27 -45 35
-68 49 -135 6 -31 -19 -63 -42 -55 -20 8 -42 64 -50 127 -3 30 -10 59 -14 65
-10 12 -40 112 -77 255 -31 120 -34 182 -11 226 16 32 37 42 342 164 l90 36 6
105 c11 182 48 355 78 362 25 6 51 -12 51 -34z m-640 -323 c0 -8 -4 -18 -10
-21 -5 -3 -10 3 -10 14 0 12 5 21 10 21 6 0 10 -6 10 -14z m-10 -66 c13 -24 0
-53 -18 -41 -9 5 -11 17 -6 34 7 32 10 33 24 7z m-810 -85 c0 -11 -40 -84 -49
-89 -5 -4 -13 -1 -16 4 -4 6 -18 15 -31 20 -35 14 -30 25 24 48 48 21 72 26
72 17z m141 -39 c-18 -22 -29 -12 -23 20 4 23 6 24 20 10 13 -12 13 -18 3 -30z
m3126 -23 c-3 -10 -5 -4 -5 12 0 17 2 24 5 18 2 -7 2 -21 0 -30z m-3417 -29
c-12 -52 -30 -67 -30 -24 0 32 -1 33 -15 14 -8 -10 -15 -28 -15 -39 -1 -19 -1
-19 -14 -2 -16 21 -27 22 -20 2 9 -22 -14 -45 -45 -45 -32 -1 -71 -32 -71 -57
0 -23 -36 -83 -50 -83 -17 0 -11 51 11 105 15 36 30 55 51 64 16 7 38 23 49
34 20 22 111 65 140 66 14 1 16 -5 9 -35z m-290 6 c0 -23 -10 -26 -28 -8 -18
18 -15 28 8 28 13 0 20 -7 20 -20z m96 -1 c3 -6 -1 -18 -10 -27 -15 -15 -18
-15 -26 -2 -5 9 -5 19 2 27 13 16 25 17 34 2z m-168 -37 c3 -9 -3 -13 -19 -10
-12 1 -24 9 -27 16 -3 9 3 13 19 10 12 -1 24 -9 27 -16z m122 -36 c0 -16 -45
-76 -54 -73 -19 6 -19 50 0 64 17 12 54 18 54 9z m-80 -58 c-1 -31 -1 -32 -15
-14 -19 25 -19 46 0 46 10 0 15 -10 15 -32z m-36 -29 c4 -23 5 -44 3 -46 -8
-7 -67 48 -67 62 0 14 15 23 41 24 12 1 18 -11 23 -40z m286 -800 c23 -17 38
-34 34 -39 -14 -12 -79 -19 -94 -10 -14 8 -6 80 9 80 4 0 27 -14 51 -31z
m1011 -28 l27 -58 67 -5 c67 -6 104 -25 91 -47 -15 -24 -95 -5 -220 53 -83 38
-93 55 -56 94 36 39 62 28 91 -37z m-1174 23 c-9 -9 -28 6 -21 18 4 6 10 6 17
-1 6 -6 8 -13 4 -17z m281 -4 c1 0 2 -4 2 -9 0 -15 -42 -21 -64 -9 -27 15 -46
34 -40 41 3 3 27 -1 52 -9 26 -7 48 -14 50 -14z m102 -71 c0 -16 -3 -29 -7
-29 -20 1 -33 19 -29 41 3 13 5 28 5 33 2 22 31 -20 31 -45z m33 -8 c3 -14 1
-18 -9 -14 -15 6 -18 16 -7 26 9 10 10 9 16 -12z m1452 -43 c-16 -5 -46 -14
-65 -19 -32 -8 -32 -8 10 -4 25 3 54 6 65 8 18 2 20 -4 20 -68 l0 -70 -43 -3
c-75 -6 -164 65 -131 104 6 8 19 14 28 14 14 0 14 2 1 10 -31 19 14 37 95 38
47 0 48 0 20 -10z m1775 -508 c0 -5 -4 -10 -10 -10 -5 0 -10 5 -10 10 0 6 5
10 10 10 6 0 10 -4 10 -10z"/>
<path d="M1862 4564 c4 -21 22 -23 26 -1 2 10 -3 17 -13 17 -10 0 -15 -6 -13
-16z"/>
<path d="M1914 4539 c-8 -14 11 -33 25 -25 6 4 11 11 11 16 0 13 -29 20 -36 9z"/>
<path d="M2025 2688 c-19 -11 -19 -11 0 -19 30 -12 73 -10 81 2 15 25 -45 38
-81 17z"/>
<path d="M2322 2651 c2 -14 9 -26 16 -29 17 -5 15 10 -3 34 -15 18 -15 18 -13
-5z"/>
<path d="M4285 2796 c0 -15 7 -27 17 -29 16 -5 16 -3 2 24 -18 35 -19 36 -19
5z"/>
<path d="M5043 4652 c-28 -37 -54 -77 -58 -89 -5 -20 -3 -23 19 -23 25 0 70
45 61 61 -3 4 5 15 19 24 20 13 24 23 21 51 -1 20 -5 37 -7 39 -2 3 -27 -26
-55 -63z"/>
<path d="M5015 4700 c3 -5 10 -10 16 -10 5 0 9 5 9 10 0 6 -7 10 -16 10 -8 0
-12 -4 -9 -10z"/>
<path d="M1671 643 c-1 -6 -4 -20 -7 -30 -5 -17 -5 -17 6 0 6 10 9 23 6 30 -3
9 -5 9 -5 0z"/>
</g>
</svg>
